# xmcd CD database file
#
# Track frame offsets:
#	150
#	14338
#	33346
#	45805
#	61113
#	74178
#	90469
#	110717
#	125879
#	142712
#
# Disc length: 2297 seconds
#
# Revision: 3
# Processed by: cddbd v1.4PL0 Copyright (c) Steve Scherf et al.
# Submitted via: CDex 1.50beta9
#
DISCID=8408f70a
DTITLE=Astor Piazzolla - Original tangos from Argentina [CD1]
DYEAR=1900
DGENRE=Tango
TTITLE0=Inspiracion
TTITLE1=Adios nonino
TTITLE2=Calambre
TTITLE3=Preparense
TTITLE4=Redencion
TTITLE5=Triunfal
TTITLE6=Balada para un loco
TTITLE7=Chiquilin de bachin
TTITLE8=Verano porte o
TTITLE9=Invierno porte e
EXTD=
EXTT0=
EXTT1=
EXTT2=
EXTT3=
EXTT4=
EXTT5=
EXTT6=
EXTT7=
EXTT8=
EXTT9=
PLAYORDER=
